<svg width="26" height="17" viewBox="0 0 26 17" fill="none" xmlns="http://www.w3.org/2000/svg">
<path d="M1.41667 17C1.01528 17 0.679061 16.864 0.408005 16.592C0.136949 16.32 0.00094933 15.9838 4.88505e-06 15.5833C-0.000939559 15.1829 0.135061 14.8467 0.408005 14.5747C0.68095 14.3027 1.01717 14.1667 1.41667 14.1667H24.0833C24.4847 14.1667 24.8214 14.3027 25.0934 14.5747C25.3654 14.8467 25.501 15.1829 25.5 15.5833C25.4991 15.9838 25.3631 16.3205 25.092 16.5934C24.821 16.8664 24.4847 17.0019 24.0833 17H1.41667ZM1.41667 9.91667C1.01528 9.91667 0.679061 9.78067 0.408005 9.50867C0.136949 9.23667 0.00094933 8.90044 4.88505e-06 8.5C-0.000939559 8.09956 0.135061 7.76333 0.408005 7.49133C0.68095 7.21933 1.01717 7.08333 1.41667 7.08333H24.0833C24.4847 7.08333 24.8214 7.21933 25.0934 7.49133C25.3654 7.76333 25.501 8.09956 25.5 8.5C25.4991 8.90044 25.3631 9.23714 25.092 9.51008C24.821 9.78303 24.4847 9.91856 24.0833 9.91667H1.41667ZM1.41667 2.83333C1.01528 2.83333 0.679061 2.69733 0.408005 2.42533C0.136949 2.15333 0.00094933 1.81711 4.88505e-06 1.41667C-0.000939559 1.01622 0.135061 0.68 0.408005 0.408C0.68095 0.136 1.01717 0 1.41667 0H24.0833C24.4847 0 24.8214 0.136 25.0934 0.408C25.3654 0.68 25.501 1.01622 25.5 1.41667C25.4991 1.81711 25.3631 2.15381 25.092 2.42675C24.821 2.69969 24.4847 2.83522 24.0833 2.83333H1.41667Z" fill="black"/>
</svg>
