<svg width="40" height="40" viewBox="0 0 40 40" fill="none" xmlns="http://www.w3.org/2000/svg">
<rect x="0.5" y="0.5" width="39" height="39" rx="7.5" stroke="#DDDDDD"/>
<path d="M20 16C20 16 20 16 20.76 15C21.64 13.84 22.94 13 24.5 13C26.99 13 29 15.01 29 17.5C29 18.43 28.72 19.29 28.24 20C27.43 21.21 20 29 20 29C20 29 12.57 21.21 11.76 20C11.28 19.29 11 18.43 11 17.5C11 15.01 13.01 13 15.5 13C17.06 13 18.37 13.84 19.24 15C20 16 20 16 20 16Z" fill="#DDDDDD"/>
<path d="M20 16C20 16 20 16 19.24 15C18.36 13.84 17.06 13 15.5 13C13.01 13 11 15.01 11 17.5C11 18.43 11.28 19.29 11.76 20C12.57 21.21 20 29 20 29M20 16C20 16 20 16 20.76 15C21.64 13.84 22.94 13 24.5 13C26.99 13 29 15.01 29 17.5C29 18.43 28.72 19.29 28.24 20C27.43 21.21 20 29 20 29" stroke="#DDDDDD" stroke-width="2" stroke-linecap="round" stroke-linejoin="round"/>
</svg>
