<svg width="37" height="36" viewBox="0 0 37 36" fill="none" xmlns="http://www.w3.org/2000/svg">
<g clip-path="url(#clip0_917_18261)">
<path fill-rule="evenodd" clip-rule="evenodd" d="M9.06025 0H27.9392C32.921 0 36.9967 3.97866 36.9967 8.84155V27.1584C36.9967 32.0213 32.921 36 27.9392 36H9.06025C4.07869 36 0.00292969 32.0213 0.00292969 27.1584V8.84155C0.00292969 3.97866 4.07869 0 9.06025 0Z" fill="#D16510"/>
<path fill-rule="evenodd" clip-rule="evenodd" d="M18.7862 30.7408C16.1811 30.7408 14.9706 30.3705 12.8726 28.8895C11.5371 30.5559 7.33392 31.8522 7.14887 29.6301C7.14887 27.9652 6.76369 26.5625 6.33887 25.0189C5.81898 23.1272 5.24072 21.0231 5.24072 17.965C5.24072 10.6735 11.4063 5.18848 18.7176 5.18848C26.0268 5.18848 31.7588 10.9401 31.7588 18.036C31.7588 25.1309 25.8442 30.7411 18.786 30.7411L18.7862 30.7408ZM18.8917 11.4929C15.3347 11.3121 12.5591 13.7062 11.9468 17.4537C11.4393 20.5576 12.3386 24.339 13.1072 24.5292C13.47 24.6189 14.3985 23.8902 14.9704 23.3349C15.9122 23.927 16.9921 24.386 18.1929 24.4463C21.8453 24.632 25.0809 21.8596 25.2727 18.3168C25.4644 14.774 22.5441 11.6786 18.8922 11.4929H18.8917Z" fill="#E3E3E3"/>
</g>
<defs>
<clipPath id="clip0_917_18261">
<rect width="37" height="36" fill="white"/>
</clipPath>
</defs>
</svg>
