<svg width="24" height="24" viewBox="0 0 24 24" fill="none" xmlns="http://www.w3.org/2000/svg">
<path d="M3.38034 15.9504C3.25034 16.0804 3.16034 16.2404 3.12034 16.4104L2.04034 20.7504C1.95034 21.0904 2.05034 21.4504 2.30034 21.7004C2.49034 21.8904 2.75034 21.9904 3.01034 21.9904C3.09034 21.9904 3.17034 21.9904 3.25034 21.9604L7.59034 20.8704C7.77034 20.8304 7.93034 20.7404 8.05034 20.6104L18.2003 10.4604L13.5303 5.79043L3.38034 15.9504ZM19.6703 2.61043C18.8603 1.80043 17.5303 1.80043 16.7203 2.61043L14.9403 4.39043L19.6103 9.06043L21.3903 7.28043C22.2003 6.47043 22.2003 5.15043 21.3903 4.33043L19.6703 2.61043Z" fill="white"/>
</svg>
