<svg width="15" height="14" viewBox="0 0 15 14" fill="none" xmlns="http://www.w3.org/2000/svg">
<path d="M6.57037 0.345361C6.72005 -0.115294 7.37175 -0.115294 7.52143 0.345361L8.84201 4.4097C8.90895 4.61571 9.10093 4.75519 9.31754 4.75519L13.591 4.75519C14.0754 4.75519 14.2768 5.375 13.8849 5.6597L10.4276 8.1716C10.2524 8.29892 10.179 8.52461 10.246 8.73062L11.5665 12.795C11.7162 13.2556 11.189 13.6387 10.7971 13.354L7.33979 10.8421C7.16455 10.7148 6.92725 10.7148 6.75201 10.8421L3.29467 13.354C2.90282 13.6387 2.37558 13.2556 2.52525 12.795L3.84584 8.73062C3.91277 8.5246 3.83944 8.29892 3.6642 8.1716L0.206867 5.6597C-0.18499 5.375 0.0163977 4.75519 0.500759 4.75519L4.77426 4.75519C4.99087 4.75519 5.18285 4.61571 5.24979 4.4097L6.57037 0.345361Z" fill="#F2C100"/>
</svg>
